<?xml version="1.0" standalone="no"?>
<!DOCTYPE svg PUBLIC "-//W3C//DTD SVG 20010904//EN"
 "http://www.w3.org/TR/2001/REC-SVG-20010904/DTD/svg10.dtd">
<svg version="1.0" xmlns="http://www.w3.org/2000/svg"
 width="900.000000pt" height="900.000000pt" viewBox="0 0 900.000000 900.000000"
 preserveAspectRatio="xMidYMid meet">

<g transform="translate(0.000000,900.000000) scale(0.100000,-0.100000)"
fill="#000000" stroke="none">
<path d="M4195 8990 c-281 -21 -523 -60 -804 -130 -1073 -269 -2021 -941
-2639 -1872 -699 -1051 -923 -2353 -617 -3578 201 -802 602 -1508 1184 -2090
707 -706 1613 -1153 2591 -1280 574 -74 1134 -42 1685 96 1082 270 2033 942
2652 1874 414 622 655 1306 735 2080 16 159 16 667 0 820 -64 599 -207 1101
-454 1594 -227 453 -493 823 -852 1181 -732 731 -1672 1179 -2706 1290 -174
19 -608 27 -775 15z m-1405 -2708 c33 -15 170 -147 491 -469 423 -426 447
-452 477 -519 93 -205 52 -429 -106 -583 -236 -231 -605 -192 -788 83 -52 79
-76 150 -81 246 -9 137 22 241 101 344 l38 49 -230 231 c-126 127 -237 246
-247 265 -23 47 -31 140 -15 196 21 74 97 149 180 176 42 14 132 4 180 -19z
m3726 0 c51 -27 109 -87 130 -137 9 -21 16 -65 16 -96 0 -103 -19 -130 -274
-386 l-231 -232 31 -36 c71 -80 112 -198 112 -320 0 -140 -52 -267 -148 -363
-310 -310 -831 -118 -877 323 -8 77 13 183 56 272 29 62 69 105 463 501 237
238 446 443 465 454 84 52 179 60 257 20z m1549 -2854 c-134 -453 -364 -892
-662 -1263 -108 -134 -333 -367 -468 -484 -592 -512 -1296 -809 -2104 -891
-133 -13 -529 -13 -662 0 -860 87 -1610 422 -2213 989 -502 472 -853 1049
-1042 1712 -3 12 38 -5 133 -54 600 -309 1290 -533 2003 -651 483 -80 1125
-114 1625 -87 1112 61 2235 339 3340 825 44 19 81 33 83 31 2 -2 -13 -59 -33
-127z"/>
</g>
</svg>
